<svg xmlns="http://www.w3.org/2000/svg" viewBox="0 0 168 168">
  <circle cx="84" cy="84" r="84" fill="#1ED760"/>
  <path d="M139 70.5c-30.4-18.1-80.9-19.8-110.2-10.9-4.7 1.4-9.6-1.4-11-5.9-1.4-4.5 1.4-9.5 5.9-11 33.7-10.2 89.8-8.2 125.1 12.6 4.2 2.5 5.7 8 3.2 12.2-2.5 4.3-8 5.8-13 3zm-1.4 35.9c-2.2 3.4-6.7 4.5-10.1 2.5-25.5-15.7-64.1-20.3-94.2-11.1-3.9 1.2-8-0.9-9.2-4.8-1.2-3.9 0.9-8 4.8-9.2 34.3-10.4 77-5.5 106 12.6 3.4 2 4.5 6.7 2.7 10zm-11.6 34.5c-1.7 2.8-5.3 3.6-8.1 2-22.2-13.6-50.3-16.8-83.3-9.2-3.1 0.8-6.3-1.1-7.1-4.2-0.8-3.1 1.1-6.3 4.2-7.1 36.3-8.2 67.3-4.7 92 10.8 2.8 1.7 3.6 5.3 2.3 7.7z" fill="#000000"/>
</svg>